# xmcd
#
# Track frame offsets:
#	150
#	12868
#	26630
#	38901
#	53363
#	66912
#	79852
#	93789
#	105582
#	116913
#	129821
#	143202
#	157431
#	171769
#	185029
#	199768
#	214015
#	228143
#	241847
#	254679
#	266721
#	279418
#	292102
#	305044
#	319484
#
# Disc length: 4455 seconds
#
# Revision: 2
# Processed by: cddbd v1.5.2PL0 Copyright (c) Steve Scherf et al.
# Submitted via: EasyCDDAExtractor 11.1.0.1
#
DISCID=72116519
DTITLE=Blind Blake - All The Published Sides - Disc 3
DYEAR=2003
DGENRE=Blues
TTITLE0=Good-Bye Mama Moan (1928)
TTITLE1=Tootie Blues (1928)
TTITLE2=That Lovin' I Crave (1928)
TTITLE3=That Lonesome Rave (1928)
TTITLE4=Terrible Murder Blues (1928)
TTITLE5=Leavin' Gal Blues (1928)
TTITLE6=No Dough Blues (1928)
TTITLE7=Lead Hearted Blues (1928)
TTITLE8=Let Your Love Come Down (1928)
TTITLE9=Rumblin' And Ramblin' Boa Constrictor Blues (1928)
TTITLE10=Bootleg Rum Dum Blues (1928)
TTITLE11=Detroit Bound Blues (1928)
TTITLE12=Beulah Land (1928)
TTITLE13=Panther Squall Blues (1928)
TTITLE14=Elzadie's Policy Blues (1928)
TTITLE15=Pay Day Daddy Blues (1928)
TTITLE16=Walkin' Across The Country (1928)
TTITLE17=Search Warrant Blues (1928)
TTITLE18=Rambin' Mama Blues (1928)
TTITLE19=New Style Of Loving (1928)
TTITLE20=Back Door Slam Blues (1928)
TTITLE21=Notoriety Woman Blues (1928)
TTITLE22=Cold Hearted Mama Blues (1928)
TTITLE23=Low Down Loving Gal (1928)
TTITLE24=Sweet Papa Low Down (1928)
EXTD=
EXTT0=
EXTT1=
EXTT2=
EXTT3=
EXTT4=
EXTT5=
EXTT6=
EXTT7=
EXTT8=
EXTT9=
EXTT10=
EXTT11=
EXTT12=
EXTT13=
EXTT14=
EXTT15=
EXTT16=
EXTT17=
EXTT18=
EXTT19=
EXTT20=
EXTT21=
EXTT22=
EXTT23=
EXTT24=
PLAYORDER=
